<?xml version="1.0" encoding="utf-8"?>
<!-- Generator: Adobe Illustrator 23.1.0, SVG Export Plug-In . SVG Version: 6.00 Build 0)  -->
<svg version="1.1" id="Layer_1" xmlns="http://www.w3.org/2000/svg" xmlns:xlink="http://www.w3.org/1999/xlink" x="0px" y="0px"
	 viewBox="0 0 608.7 453.16" style="enable-background:new 0 0 608.7 453.16;" xml:space="preserve">
<style type="text/css">
	.st0{fill:#FFFFFF;stroke:#D1D3D4;stroke-width:2;stroke-linejoin:round;}
	.st1{fill:none;stroke:#BE1E2D;stroke-linejoin:round;}
	.st2{fill:#FFFFFF;stroke:#000000;stroke-linejoin:round;}
	.st3{fill:none;stroke:#1B75BC;stroke-width:1.5;stroke-linejoin:round;}
	.st4{fill:none;stroke:#1B75BC;stroke-width:1.5;stroke-linejoin:round;stroke-dasharray:5.0933,5.0933;}
	.st5{fill:#FFFFFF;}
	.st6{fill:none;stroke:#1B75BC;stroke-width:1.5;stroke-linejoin:round;stroke-dasharray:4.7082,4.7082;}
	.st7{fill:none;stroke:#939598;stroke-width:4;stroke-linejoin:round;stroke-dasharray:4,18;}
	.st8{fill:#FFFFFF;stroke:#006838;stroke-linejoin:round;}
	.st9{font-family:'MyriadPro-Regular';}
	.st10{font-size:12px;}
	.st11{fill:#006838;}
	.st12{fill:#BE1E2D;}
</style>
<g>
	<title>Layer 1</title>
	<g id="layer1">
		<path id="path3422" class="st0" d="M343.91,31.08c-36.21,0-67.63,13.18-85.21,32.64c-16.31-7.78-36.07-12.48-57.54-12.48
			c-55.25,0-100.14,30.3-100.14,67.6c0,2.74,0.75,5.36,1.22,8.02c-47.72,5.14-84.35,32.79-84.35,66.44c0,33.34,35.93,60.93,83,66.44
			c-0.95,3.74-1.71,7.56-1.71,11.49c0,37.29,44.89,67.51,100.14,67.51c27.06,0,51.51-7.3,69.54-19.09
			c18.37,14.75,45.52,24.38,76.27,24.38c43.88,0,80.76-19.24,94.27-45.78c10.81,2.7,22.33,4.46,34.52,4.46
			c55.25,0,100.02-30.3,100.02-67.6c0-18.75-11.33-35.68-29.63-47.93c9.24-10.23,14.94-22.1,14.94-34.95
			c0-37.29-44.89-67.51-100.14-67.51c-5.82,0-11.47,0.43-17.02,1.07C433.18,54.65,392.64,31.08,343.91,31.08L343.91,31.08z"/>
		<path id="path3424" class="st0" d="M10.36,21.37"/>
		<path id="path3426" class="st0" d="M10.36,21.37"/>
	</g>
</g>
<rect x="270.07" y="253.16" class="st1" width="75.06" height="49.79"/>
<rect x="110.78" y="134.42" class="st2" width="65.87" height="33.7"/>
<g>
	<g>
		<line class="st3" x1="143.71" y1="168.12" x2="143.71" y2="170.62"/>
		<path class="st4" d="M143.71,175.71v11.99c0,2.89,3.33,5.61,9,7.35l119.49,36.7c5.67,1.74,9,4.46,9,7.35v9.01"/>
		<line class="st3" x1="281.2" y1="250.66" x2="281.2" y2="253.16"/>
	</g>
</g>
<g>
	<g>
		<line class="st3" x1="469.7" y1="168.12" x2="469.7" y2="170.62"/>
		<path class="st4" d="M469.7,175.71v11.99c0,2.89-3.33,5.61-9,7.35l-119.49,36.7c-5.67,1.74-9,4.46-9,7.35v9.01"/>
		<line class="st3" x1="332.21" y1="250.66" x2="332.21" y2="253.16"/>
	</g>
</g>
<rect x="273.33" y="134.42" class="st2" width="65.87" height="33.7"/>
<g>
	<line class="st5" x1="306.27" y1="168.12" x2="306.27" y2="253.16"/>
	<g>
		<line class="st3" x1="306.27" y1="168.12" x2="306.27" y2="170.62"/>
		<line class="st6" x1="306.27" y1="175.33" x2="306.27" y2="248.3"/>
		<line class="st3" x1="306.27" y1="250.66" x2="306.27" y2="253.16"/>
	</g>
</g>
<rect x="436.76" y="134.42" class="st2" width="65.87" height="33.7"/>
<rect x="110.34" y="387.98" class="st2" width="65.87" height="33.7"/>
<g>
	<g>
		<line class="st3" x1="143.27" y1="387.98" x2="143.27" y2="385.48"/>
		<path class="st4" d="M143.27,380.39V368.4c0-2.89,3.33-5.61,9-7.35l119.49-36.7c5.67-1.74,9-4.46,9-7.35v-9.01"/>
		<line class="st3" x1="280.76" y1="305.45" x2="280.76" y2="302.95"/>
	</g>
</g>
<g>
	<g>
		<line class="st3" x1="469.26" y1="387.98" x2="469.26" y2="385.48"/>
		<path class="st4" d="M469.26,380.39V368.4c0-2.89-3.33-5.61-9-7.35l-119.49-36.7c-5.67-1.74-9-4.46-9-7.35v-9.01"/>
		<line class="st3" x1="331.77" y1="305.45" x2="331.77" y2="302.95"/>
	</g>
</g>
<rect x="272.89" y="387.98" class="st2" width="65.87" height="33.7"/>
<g>
	<line class="st5" x1="305.83" y1="387.98" x2="305.83" y2="302.95"/>
	<g>
		<line class="st3" x1="305.83" y1="387.98" x2="305.83" y2="385.48"/>
		<line class="st6" x1="305.83" y1="380.78" x2="305.83" y2="307.8"/>
		<line class="st3" x1="305.83" y1="305.45" x2="305.83" y2="302.95"/>
	</g>
</g>
<rect x="436.32" y="387.98" class="st2" width="65.87" height="33.7"/>
<line class="st7" x1="199.02" y1="404.84" x2="258.25" y2="404.84"/>
<line class="st7" x1="360.48" y1="404.84" x2="419.71" y2="404.84"/>
<line class="st7" x1="195.48" y1="151.27" x2="254.71" y2="151.27"/>
<line class="st7" x1="356.94" y1="151.27" x2="416.17" y2="151.27"/>
<rect x="272.89" y="75.19" class="st8" width="65.87" height="33.7"/>
<text transform="matrix(1 0 0 1 126.9327 408.4097)" class="st9 st10">Robot</text>
<text transform="matrix(1 0 0 1 291.1535 408.4095)" class="st9 st10">Robot</text>
<text transform="matrix(1 0 0 1 454.047 408.4098)" class="st9 st10">Robot</text>
<text transform="matrix(1 0 0 1 128.9966 155.3088)" class="st9 st10">Clone</text>
<text transform="matrix(1 0 0 1 292.1535 155.3089)" class="st9 st10">Clone</text>
<text transform="matrix(1 0 0 1 456.2928 155.3089)" class="st9 st10">Clone</text>
<text transform="matrix(1 0 0 1 283.4839 96.1277)" class="st11 st9 st10">Manager</text>
<text transform="matrix(1 0 0 1 279.9059 275.1704)"><tspan x="0" y="0" class="st12 st9 st10">Crossbar.io</tspan><tspan x="10.91" y="14.4" class="st12 st9 st10">Router</tspan></text>
</svg>
